PathFileType	4	(X/Y/Z)	Patient4_TMGait_0pt6_02_right_14.trc.trc
DataRate	CameraRate	NumFrames	NumMarkers	Units	OrigDataRate	OrigDataStartFrame	OrigNumFrames
82.352941176471	82.352941176471	6	33	mm	82.352941176471	53	       141
Frame#	Time	Sacral			L.Shoulder			Chest			R.Shoulder			Neck			R.ASIS			L.ASIS			R.Thigh.Superior			R.Thigh.Lateral			R.Thigh.Inferior			R.Patella			L.Thigh.Superior			L.Thigh.Lateral			L.Thigh.Inferior			L.Patella			L.Shank.Superior			L.Shank.Lateral			L.Shank.Inferior			R.Shank.Superior			R.Shank.Lateral			R.Shank.Inferior			R.Heel			R.Midfoot.Superior			R.Midfoot.Lateral			R.Toe			L.Heel			L.Midfoot.Lateral			L.Midfoot.Superior			L.Toe			L.Elbow			L.Wrist			R.Elbow			R.Wrist			
		X1	Y1	Z1	X2	Y2	Z2	X3	Y3	Z3	X4	Y4	Z4	X5	Y5	Z5	X6	Y6	Z6	X7	Y7	Z7	X8	Y8	Z8	X9	Y9	Z9	X10	Y10	Z10	X11	Y11	Z11	X12	Y12	Z12	X13	Y13	Z13	X14	Y14	Z14	X15	Y15	Z15	X16	Y16	Z16	X17	Y17	Z17	X18	Y18	Z18	X19	Y19	Z19	X20	Y20	Z20	X21	Y21	Z21	X22	Y22	Z22	X23	Y23	Z23	X24	Y24	Z24	X25	Y25	Z25	X26	Y26	Z26	X27	Y27	Z27	X28	Y28	Z28	X29	Y29	Z29	X30	Y30	Z30	X31	Y31	Z31	X32	Y32	Z32	X33	Y33	Z33	

53	17.251428571429	757.146839145451	1012.969022090438	534.340763663618	929.934675387744	1434.622702466809	338.290696331782	1045.545781716544	1363.883716058633	489.742051279558	980.133488165975	1443.045396913518	668.503347189759	944.539396236973	1496.821343129105	488.250700804234	988.681757325744	944.136499120565	635.049823247348	957.942427787184	965.364637392543	362.420816480081	1017.745080322695	739.313850535158	603.199757632432	932.681147952058	634.503775756820	664.596663860572	1002.510239645390	579.818743432415	580.484466943678	997.696283725123	493.716836408518	583.927179915649	1046.255213837962	794.824548659459	397.138056863487	1012.295124192820	665.781248937387	317.770798285776	1115.910584297038	608.234751045173	381.115974180491	1138.603192528829	525.744061231257	373.389192046680	1093.333029567844	450.313432805953	363.701577673125	976.461761469149	363.345469037832	311.982078585594	1010.486260434259	236.726380812287	365.516105104666	972.100607107354	405.535538421165	590.653086328672	903.163236208221	300.087175614511	651.363547130284	943.878919461796	206.976139676962	585.174466655649	810.689200365490	42.132254629816	554.030169198329	981.665325191441	97.107590141188	588.296430400026	894.499700188685	36.706872292742	628.197785433919	1102.492682961361	45.163443445609	615.025327024387	856.907932769387	107.130207514849	400.985192413512	925.988764954731	88.237352101885	319.662487403764	1020.829773617628	132.509882621000	342.316886174307	1132.838672210055	57.878498741698	311.028974459441	857.652384125068	1080.977095401607	240.404564150524	907.909444987881	825.495112914394	224.507861646224	997.237254784634	1102.819081097414	805.189326260804	1216.928986936606	997.074170515516	728.518465576436	
54	17.263571428571	756.393959080069	1013.457031873899	535.458362586789	928.904215684417	1434.811494309146	339.100101209185	1045.338310001460	1363.785800706686	489.731423985870	981.278621640930	1443.084941867075	668.952227076216	944.479488852250	1496.853273708440	489.023568921755	988.270905571673	943.915605830855	635.117871701256	956.571311660635	965.609809670524	362.498281769322	1015.134676396737	738.593210008795	602.805504142532	929.586367363673	634.355206208146	664.896992058745	998.427997651884	579.113063959761	580.542150017262	992.808790982811	493.105933057854	584.030655545832	1044.317869153508	794.942306950187	397.335992354737	1010.142078665789	665.748161169722	317.836895545525	1113.159359732421	608.144870397573	381.972493888484	1137.043465900347	527.856421207754	374.205854822446	1095.975021365505	452.263476195592	363.732248361741	985.796335797983	357.830169844340	311.150799051440	1028.427330612035	233.489736860401	364.491497193455	966.761843667711	405.118001133813	590.737268324425	897.410382363522	299.979516901240	651.543677291541	937.378505391073	206.677839326959	585.156526673822	803.383052641757	42.193742692971	554.058138440193	974.380339138133	97.002123849482	588.290135252963	887.203414284397	36.715101744266	628.235482712622	1095.215081808259	44.847806868569	615.072187432630	884.501570212598	93.201370946397	399.295078736190	954.911703410735	79.519278874403	318.085133021501	1046.317358200654	130.128879894004	341.072105639953	1163.305712273885	63.629559719408	309.893945085346	852.535592722201	1082.083534419573	241.396395405749	893.792515429486	825.408124771210	224.537983873267	1006.189514080540	1103.982198574243	805.699986125153	1230.159136620987	1015.335236608936	722.650162335680	
55	17.275714285714	755.751751071264	1013.849353424340	536.383257702384	928.005718656852	1434.931769520819	339.767477013782	1045.156133437053	1363.642738136394	489.655766339298	982.287952709768	1443.060502888944	669.277429390188	944.416509881915	1496.816442913787	489.666362981545	987.881917558811	943.661309324883	635.166082859741	955.381228081143	965.673437784238	362.545781849768	1012.624670498079	737.854280283319	602.562012578479	926.462381648663	634.188357661322	665.208705247462	994.365093701221	578.372794851484	580.685611557319	987.931832918621	492.491565029351	584.206699620107	1042.137587703810	794.366353750292	397.346094153269	1007.404386443044	665.229722661589	317.627090775044	1109.653515697519	607.287858637058	382.680170778791	1134.620089643383	529.400420660112	374.933671663215	1097.781195693918	454.009739665905	363.704107127079	994.889368650149	352.499390513567	310.158378959561	1045.852051940342	231.077853707941	363.570750154349	961.415948746499	404.694651174588	590.858631974119	891.640165214419	299.880169763545	651.746565064333	930.877369539402	206.385642819043	585.176080478140	796.076508914880	42.271787146363	554.097189276663	967.098206886760	96.895838078154	588.297772592273	879.910101018177	36.720391435346	628.273808630364	1087.940297648484	44.507992491607	615.136055585646	912.170430464137	80.830486503385	397.637913975501	983.791141246356	72.235095007441	316.725898807325	1071.339409680581	128.934706819144	340.114091420774	1192.806965158896	70.714387860914	309.450391674552	847.530488137113	1083.217322116496	242.190225387939	880.296148379940	825.706540609858	224.654329540942	1015.210182856080	1105.205901764262	805.822783491711	1242.099458640483	1033.862648579761	716.629668069825	
56	17.287857142857	755.229266025982	1014.141473703000	537.126196812442	927.248916170245	1434.989020383262	340.279626902223	1044.995512299292	1363.461611433917	489.516684573505	983.142815358519	1442.983213575927	669.473881583745	944.353764158397	1496.721204306042	490.164042842863	987.526403747027	943.387001211310	635.188479137885	954.364457463816	965.581126889265	362.560249891360	1010.232740895037	737.105350278037	602.469621722975	923.307619726349	634.010533903636	665.515126086944	990.322417162073	577.602384556297	580.902679739836	983.072362325904	491.877453647265	584.438559152821	1039.749355120021	793.186460710921	397.198099673290	1004.230468934451	664.332532469122	317.128461139599	1105.588950158294	605.823086236815	383.195907698273	1131.534432878224	530.470616173464	375.532886349104	1098.871712105581	455.597690199058	363.603123522196	1003.657689713183	347.536613928843	309.054743507818	1062.502789731332	229.587184581195	362.792083935274	956.061165344735	404.270058548826	591.001827509781	885.847918050782	299.800039148787	651.960912438076	924.376100834503	206.108872821449	585.227333206282	788.769981699430	42.366359462323	554.147434216820	959.819552710248	96.792821299879	588.321035106697	872.618236725794	36.723132000358	628.311059770719	1080.666149834704	44.155268457184	615.216110095308	939.364000800245	70.328232237907	396.112420396424	1012.092870292916	66.519791968634	315.682290390896	1095.491405441141	128.945752586767	339.488035545782	1220.880258868918	78.919282418815	309.764074479276	842.639443715092	1084.381286410093	242.797563871937	867.501673063196	826.332265465269	224.864505894718	1024.281126472557	1106.494494133278	805.512049033564	1252.762791323261	1052.447149354545	710.502346939772	
57	17.300000000000	754.827903601533	1014.329434803033	537.698205047858	926.633987594968	1434.988636404036	340.627310491679	1044.850270398837	1363.249865059293	489.315182215344	983.829949960550	1442.863970146227	669.538162709612	944.289893420630	1496.577714907376	490.504892816322	987.216894893281	943.104275797014	635.173487862409	953.509352781266	965.362163647091	362.535467932927	1007.966044105766	736.353459918652	602.507774372743	920.127170704508	633.828626790450	665.796051544963	986.304315543938	576.810381348606	581.172366734104	978.239276555682	491.265566568951	584.703947515046	1037.210223891342	791.524886999385	396.922919900626	1000.786887679246	663.167855955119	316.356462170961	1101.195696272800	603.933682125774	383.482245834821	1128.012981347137	531.168577551329	375.966925313088	1099.384118452957	457.055826486640	363.413778974952	1011.977265962508	343.081109019894	307.913798157488	1078.114614613865	229.019608598906	362.174619605682	950.699991809081	403.849217938407	591.150383276711	880.031049999285	299.748750919359	652.174176163646	917.875539817930	205.855266700404	585.302499082715	781.463813009092	42.477576223602	554.206839965963	952.545797298329	96.696513782292	588.360640826548	865.325905936832	36.724094449953	628.344293933816	1073.391042235079	43.800879080467	615.309951871203	965.486283628093	61.863763414290	394.826786709017	1039.222810680585	62.374937291258	315.029692717485	1118.349008134794	130.057231348506	339.196821039133	1247.067296171047	87.884934190582	310.794805298150	837.870325422044	1085.575623171086	243.230209387049	855.475975799955	827.221696746996	225.167633608199	1033.370583437123	1107.857289588386	804.733814822136	1262.186901985515	1070.882529570489	704.316694054219	
58	17.312142857143	754.542927327977	1014.409741206354	538.107773737406	926.150879067816	1434.935379388229	340.805919899644	1044.712202028191	1363.014249388622	489.050864211973	984.342523011974	1442.711519157617	669.468476027860	944.218494693768	1496.394084307052	490.681981744095	986.964625976526	942.821878330346	635.106735087019	952.804159043930	965.044093155186	362.462584404338	1005.822893091536	735.603920145575	602.638560535840	916.933483741095	633.648478738689	666.030148699880	982.320602005427	576.008300139174	581.467613687244	973.444585525145	490.655675317347	584.977336986994	1034.603952216207	789.528031089161	396.549456716836	997.247979831779	661.838716774893	315.360289617473	1096.721881384496	601.807203536569	383.513592230126	1124.294396054596	531.588827134740	376.207040248466	1099.461883457436	458.388432747857	363.125602542363	1019.690231511748	339.215733747717	306.827526429712	1092.425298010646	229.279666844450	361.720884045101	945.341073928642	403.436853481285	591.288790403953	874.191105562124	299.733941629254	652.374508948330	911.377515768965	205.629906995773	585.392741539194	774.158143652270	42.605653764005	554.272072135073	945.278906001778	96.609553516034	588.416411047139	858.031055869398	36.724265366261	628.369726549749	1066.114139208892	43.454966332688	615.413985391771	989.927024586467	55.452283416188	393.889465381307	1064.554823652582	59.673333651911	314.813234674315	1139.483016144319	132.049669526526	339.204730076294	1270.927955053550	97.134947764640	312.397192859345	833.237001278146	1086.796681949833	243.499161405517	844.270932524594	828.308567740905	225.554834261646	1042.432504222780	1109.305333883313	803.469175968757	1270.429788761056	1088.971781440550	698.122907658454	
